<svg width="80" height="77" viewBox="0 0 80 77" fill="none" xmlns="http://www.w3.org/2000/svg">
<mask id="path-1-inside-1_152_871" fill="white">
<path d="M47.8993 56.4263C40.8056 58.5241 32.4831 57.3813 27.5813 51.5038C36.8834 48.1722 46.4614 45.5329 55.8618 42.4825C61.6108 40.617 67.3874 38.8234 73.1597 37.0292C74.8559 36.5019 80 34.924 80 34.924C80 34.924 79.7471 32.584 79.573 31.743C79.1573 29.735 78.5635 27.7267 77.891 25.7883C74.7664 16.7825 68.8627 8.88795 60.2549 4.33312C42.1024 -5.27224 16.5952 1.77258 5.6798 18.7504C0.884372 26.2092 -0.449481 34.4477 0.124752 43.1124C0.693439 51.6936 4.401 60.6758 10.8435 66.5798C21.8592 76.6752 38.9509 79.2259 53.1161 75.1372C56.2965 74.2193 59.476 73.0358 62.4512 71.5987C63.3894 71.1456 65.7256 69.6623 65.7256 69.6623C65.7256 69.6623 63.7287 66.0025 63.0255 64.8464C60.6112 60.8772 56.5958 53.6449 56.5958 53.6449M22.9136 38.5107C22.9136 38.5107 19.4077 22.78 33.5948 18.7075C50.0333 13.9887 53.5736 26.9381 54.2165 28.2781C54.2165 28.2781 50.3133 29.5967 48.9976 30.0292L35.8183 34.3602C31.5521 35.7621 22.9136 38.5107 22.9136 38.5107Z"/>
</mask>
<path d="M27.5813 51.5038L26.5697 48.6795L22.5269 50.1275L25.2774 53.4253L27.5813 51.5038ZM55.8618 42.4825L56.7878 45.3361L56.7878 45.3361L55.8618 42.4825ZM73.1597 37.0292L74.0501 39.894L74.0502 39.894L73.1597 37.0292ZM80 34.924L80.8798 37.7921L83.2488 37.0654L82.9826 34.6017L80 34.924ZM79.573 31.743L82.5107 31.1348V31.1348L79.573 31.743ZM77.891 25.7883L80.7253 24.8051L80.7253 24.805L77.891 25.7883ZM60.2549 4.33312L61.6581 1.68147L61.658 1.68146L60.2549 4.33312ZM5.6798 18.7504L3.15634 17.128L3.15633 17.128L5.6798 18.7504ZM0.124752 43.1124L3.11819 42.9141H3.11819L0.124752 43.1124ZM10.8435 66.5798L12.8704 64.3681L12.8704 64.3681L10.8435 66.5798ZM53.1161 75.1372L52.2842 72.2548L52.2842 72.2548L53.1161 75.1372ZM62.4512 71.5987L61.1464 68.8973L61.1464 68.8973L62.4512 71.5987ZM65.7256 69.6623L67.3336 72.1949L69.7038 70.69L68.3591 68.2254L65.7256 69.6623ZM63.0255 64.8464L65.5887 63.2874L65.5886 63.2873L63.0255 64.8464ZM22.9136 38.5107L19.9854 39.1633L20.6987 42.3637L23.8232 41.3695L22.9136 38.5107ZM33.5948 18.7075L34.4225 21.591L33.5948 18.7075ZM54.2165 28.2781L55.1767 31.1203L58.3873 30.0357L56.9213 26.9803L54.2165 28.2781ZM48.9976 30.0292L49.9342 32.8793L49.9346 32.8792L48.9976 30.0292ZM35.8183 34.3602L36.7549 37.2103L36.7549 37.2103L35.8183 34.3602ZM47.0486 53.5495C40.6859 55.4311 33.7758 54.2474 29.8851 49.5823L25.2774 53.4253C31.1904 60.5152 40.9252 61.6172 48.7501 59.3031L47.0486 53.5495ZM28.5928 54.3281C37.8662 51.0068 47.1875 48.4513 56.7878 45.3361L54.9359 39.629C45.7353 42.6146 35.9005 45.3376 26.5697 48.6795L28.5928 54.3281ZM56.7878 45.3361C62.5158 43.4773 68.274 41.6894 74.0501 39.894L72.2692 34.1644C66.5008 35.9574 60.7057 37.7566 54.9358 39.629L56.7878 45.3361ZM74.0502 39.894C74.8928 39.6321 76.5979 39.1073 78.0973 38.6465C78.8459 38.4164 79.5415 38.2028 80.0501 38.0467C80.3044 37.9687 80.5118 37.905 80.6557 37.8608C80.7276 37.8388 80.7837 37.8216 80.8217 37.8099C80.8408 37.8041 80.8553 37.7996 80.865 37.7966C80.8699 37.7951 80.8736 37.794 80.8761 37.7932C80.8773 37.7928 80.8783 37.7926 80.8789 37.7924C80.8792 37.7923 80.8794 37.7922 80.8796 37.7922C80.8796 37.7921 80.8797 37.7921 80.8797 37.7921C80.8798 37.7921 80.8798 37.7921 80 34.924C79.1202 32.0559 79.1202 32.0559 79.1201 32.0559C79.1201 32.0559 79.12 32.0559 79.12 32.056C79.1198 32.056 79.1196 32.0561 79.1192 32.0562C79.1186 32.0564 79.1177 32.0567 79.1164 32.057C79.114 32.0578 79.1102 32.059 79.1053 32.0605C79.0955 32.0635 79.081 32.0679 79.0619 32.0738C79.0238 32.0855 78.9676 32.1027 78.8956 32.1248C78.7515 32.169 78.5439 32.2327 78.2894 32.3109C77.7804 32.4671 77.0841 32.6809 76.3346 32.9113C74.8379 33.3712 73.1228 33.8991 72.2691 34.1645L74.0502 39.894ZM80 34.924C82.9826 34.6017 82.9826 34.6016 82.9826 34.6016C82.9826 34.6015 82.9826 34.6015 82.9826 34.6014C82.9826 34.6012 82.9826 34.6011 82.9825 34.6009C82.9825 34.6004 82.9824 34.5999 82.9824 34.5992C82.9822 34.5978 82.982 34.5958 82.9817 34.5933C82.9812 34.5882 82.9804 34.581 82.9794 34.5718C82.9773 34.5532 82.9744 34.5264 82.9706 34.4922C82.9631 34.4239 82.9522 34.3261 82.9386 34.2065C82.9114 33.9676 82.8733 33.6391 82.8293 33.2822C82.7477 32.6194 82.6272 31.6975 82.5107 31.1348L76.6353 32.3511C76.693 32.6295 76.786 33.2981 76.8743 34.0155C76.9153 34.3487 76.9513 34.6578 76.977 34.884C76.9898 34.9968 77 35.0884 77.007 35.1514C77.0104 35.1829 77.0131 35.2071 77.0149 35.2233C77.0157 35.2313 77.0164 35.2373 77.0168 35.2412C77.017 35.2432 77.0172 35.2446 77.0173 35.2454C77.0173 35.2458 77.0173 35.2461 77.0174 35.2463C77.0174 35.2463 77.0174 35.2464 77.0174 35.2464L77.0174 35.2464C77.0174 35.2463 77.0174 35.2463 80 34.924ZM82.5107 31.1348C82.0617 28.9656 81.4271 26.8281 80.7253 24.8051L75.0567 26.7715C75.6998 28.6253 76.253 30.5044 76.6353 32.3511L82.5107 31.1348ZM80.7253 24.805C77.4004 15.2218 71.057 6.65495 61.6581 1.68147L58.8518 6.98476C66.6684 11.1209 72.1325 18.3432 75.0568 26.7717L80.7253 24.805ZM61.658 1.68146C51.8044 -3.53254 40.0916 -4.16944 29.4768 -1.32467C18.8651 1.51928 9.07957 7.91502 3.15634 17.128L8.20326 20.3728C13.1954 12.608 21.6212 6.99238 31.03 4.47081C40.4358 1.95005 50.5529 2.59341 58.8518 6.98477L61.658 1.68146ZM3.15633 17.128C-2.08104 25.2743 -3.47225 34.2033 -2.86868 43.3108L3.11819 42.9141C2.57329 34.692 3.84979 27.1442 8.20326 20.3728L3.15633 17.128ZM-2.86868 43.3108C-2.25757 52.5321 1.7153 62.2838 8.8166 68.7916L12.8704 64.3681C7.08669 59.0679 3.64445 50.855 3.11819 42.9141L-2.86868 43.3108ZM8.81657 68.7916C20.7506 79.7285 38.9864 82.3381 53.9481 78.0195L52.2842 72.2548C38.9153 76.1137 22.9678 73.6219 12.8704 64.3681L8.81657 68.7916ZM53.948 78.0195C57.2723 77.0601 60.6121 75.8187 63.756 74.3001L61.1464 68.8973C58.3399 70.2529 55.3207 71.3784 52.2842 72.2548L53.948 78.0195ZM63.756 74.3001C64.3803 73.9986 65.3259 73.4341 66.0016 73.0222C66.3647 72.8009 66.6962 72.595 66.9366 72.4447C67.057 72.3694 67.1552 72.3076 67.2237 72.2644C67.258 72.2428 67.2849 72.2258 67.3035 72.214C67.3128 72.2081 67.32 72.2035 67.3251 72.2003C67.3276 72.1987 67.3296 72.1975 67.331 72.1966C67.3317 72.1961 67.3323 72.1958 67.3327 72.1955C67.3329 72.1954 67.3331 72.1952 67.3333 72.1951C67.3333 72.1951 67.3334 72.1951 67.3334 72.195C67.3335 72.195 67.3336 72.1949 65.7256 69.6623C64.1175 67.1297 64.1176 67.1296 64.1176 67.1296L64.1177 67.1296C64.1177 67.1296 64.1176 67.1296 64.1175 67.1297C64.1174 67.1297 64.1171 67.1299 64.1167 67.1302C64.1159 67.1307 64.1145 67.1316 64.1126 67.1328C64.1087 67.1352 64.1027 67.139 64.0947 67.1441C64.0786 67.1543 64.0544 67.1696 64.023 67.1894C63.9601 67.2291 63.8684 67.2868 63.7552 67.3576C63.5282 67.4995 63.217 67.6928 62.8788 67.8989C62.1519 68.342 61.4603 68.7457 61.1464 68.8973L63.756 74.3001ZM65.7256 69.6623C68.3591 68.2254 68.359 68.2254 68.359 68.2253C68.359 68.2253 68.359 68.2252 68.3589 68.2252C68.3589 68.225 68.3587 68.2248 68.3586 68.2246C68.3583 68.2241 68.358 68.2234 68.3574 68.2224C68.3564 68.2206 68.3549 68.2178 68.353 68.2142C68.349 68.2071 68.3433 68.1965 68.3357 68.1827C68.3207 68.1552 68.2986 68.1148 68.2704 68.0631C68.2138 67.9597 68.1324 67.8111 68.0326 67.6292C67.8331 67.2655 67.5594 66.7681 67.2633 66.2337C66.6849 65.19 65.9783 63.9279 65.5887 63.2874L60.4624 66.4053C60.776 66.9209 61.4194 68.0668 62.0152 69.142C62.3062 69.6671 62.5757 70.1569 62.7725 70.5156C62.8709 70.6949 62.951 70.8412 63.0064 70.9425C63.0341 70.9931 63.0556 71.0325 63.0702 71.0591C63.0774 71.0724 63.083 71.0826 63.0867 71.0893C63.0885 71.0927 63.0899 71.0952 63.0908 71.0968C63.0912 71.0977 63.0916 71.0983 63.0918 71.0987C63.0919 71.0989 63.092 71.099 63.092 71.0991C63.092 71.0991 63.092 71.0992 63.092 71.0992C63.0921 71.0992 63.092 71.0992 65.7256 69.6623ZM65.5886 63.2873C64.4077 61.3458 62.82 58.5806 61.5154 56.2782C60.8658 55.1318 60.2911 54.1084 59.8788 53.3718C59.6727 53.0036 59.5074 52.7072 59.3936 52.5031C59.3368 52.4011 59.2929 52.3222 59.2632 52.2689C59.2484 52.2423 59.2372 52.222 59.2297 52.2086C59.2259 52.2018 59.2231 52.1968 59.2213 52.1934C59.2204 52.1918 59.2197 52.1905 59.2192 52.1897C59.219 52.1893 59.2188 52.189 59.2187 52.1888C59.2187 52.1887 59.2187 52.1887 59.2186 52.1886C59.2186 52.1886 59.2186 52.1886 56.5958 53.6449C53.9729 55.1011 53.9729 55.1012 53.973 55.1012C53.973 55.1013 53.9731 55.1014 53.9732 55.1015C53.9733 55.1018 53.9735 55.1022 53.9738 55.1026C53.9743 55.1036 53.9751 55.105 53.9761 55.1068C53.9781 55.1105 53.9811 55.1158 53.985 55.1229C53.9929 55.137 54.0045 55.1579 54.0197 55.1852C54.05 55.2398 54.0947 55.3201 54.1524 55.4236C54.2677 55.6306 54.4349 55.9302 54.643 56.3021C55.0591 57.0455 55.6391 58.0784 56.2952 59.2362C57.6019 61.5422 59.2291 64.3778 60.4624 66.4054L65.5886 63.2873ZM22.9136 38.5107C25.8417 37.8581 25.842 37.8594 25.8423 37.8606C25.8424 37.8609 25.8426 37.862 25.8427 37.8627C25.843 37.8639 25.8433 37.865 25.8434 37.8658C25.8438 37.8674 25.8439 37.8682 25.8439 37.868C25.8438 37.8676 25.843 37.8636 25.8414 37.8561C25.8383 37.8411 25.8324 37.812 25.8243 37.7698C25.8082 37.6853 25.7834 37.5484 25.755 37.3657C25.698 36.9993 25.627 36.4541 25.5802 35.781C25.4857 34.4214 25.4947 32.6116 25.8747 30.7301C26.6103 27.0868 28.6704 23.2422 34.4225 21.591L32.767 15.8239C24.3321 18.2452 21.0515 24.3022 19.9934 29.5425C19.4764 32.1027 19.4752 34.4801 19.5947 36.1973C19.6549 37.0626 19.747 37.7781 19.8263 38.288C19.866 38.5434 19.9028 38.7484 19.931 38.8963C19.9452 38.9703 19.9572 39.0301 19.9665 39.0749C19.9711 39.0972 19.9751 39.1159 19.9783 39.1306C19.9799 39.138 19.9813 39.1445 19.9825 39.1499C19.9831 39.1526 19.9836 39.1551 19.9841 39.1573C19.9843 39.1585 19.9847 39.16 19.9848 39.1605C19.9851 39.1619 19.9854 39.1633 22.9136 38.5107ZM34.4225 21.591C41.7344 19.4921 45.6103 21.3898 47.7836 23.4153C50.2565 25.7202 50.9479 28.4006 51.5118 29.5759L56.9213 26.9803C56.9401 27.0195 56.9317 27.0055 56.8545 26.8077C56.7951 26.6554 56.7063 26.4247 56.6031 26.1683C56.392 25.644 56.0998 24.9585 55.7061 24.1884C54.9235 22.6574 53.7158 20.7424 51.8744 19.0262C48.0072 15.4217 41.8937 13.2041 32.767 15.8239L34.4225 21.591ZM54.2165 28.2781C53.2564 25.4359 53.2564 25.4359 53.2564 25.4359C53.2563 25.4359 53.2563 25.4359 53.2562 25.4359C53.2561 25.436 53.2559 25.436 53.2557 25.4361C53.2552 25.4363 53.2546 25.4365 53.2536 25.4368C53.2518 25.4374 53.249 25.4384 53.2453 25.4396C53.2379 25.4421 53.2269 25.4458 53.2125 25.4507C53.1837 25.4604 53.1412 25.4748 53.0867 25.4932C52.9776 25.53 52.8202 25.5832 52.6272 25.6483C52.2412 25.7785 51.7129 25.9566 51.1437 26.1481C50.0007 26.5327 48.7066 26.9669 48.0607 27.1793L49.9346 32.8792C50.6044 32.659 51.9198 32.2176 53.0573 31.8348C53.6283 31.6426 54.1581 31.464 54.545 31.3335C54.7385 31.2682 54.8964 31.2149 55.0059 31.178C55.0606 31.1595 55.1033 31.1451 55.1323 31.1353C55.1468 31.1304 55.1579 31.1266 55.1653 31.1241C55.1691 31.1229 55.1719 31.1219 55.1738 31.1213C55.1748 31.1209 55.1755 31.1207 55.176 31.1205C55.1762 31.1205 55.1764 31.1204 55.1765 31.1203C55.1766 31.1203 55.1766 31.1203 55.1766 31.1203C55.1767 31.1203 55.1767 31.1203 54.2165 28.2781ZM48.061 27.1792L34.8817 31.5102L36.7549 37.2103L49.9342 32.8793L48.061 27.1792ZM34.8818 31.5102C32.7607 32.2072 29.5444 33.2416 26.8511 34.1041C25.5061 34.5349 24.2941 34.9219 23.4183 35.2012C22.9805 35.3409 22.6268 35.4536 22.3826 35.5314C22.2605 35.5703 22.1658 35.6004 22.1016 35.6209C22.0695 35.6311 22.0451 35.6389 22.0287 35.6441C22.0205 35.6467 22.0143 35.6487 22.0101 35.65C22.0081 35.6506 22.0065 35.6511 22.0055 35.6515C22.005 35.6516 22.0046 35.6517 22.0043 35.6518C22.0042 35.6519 22.0041 35.6519 22.0041 35.6519C22.004 35.6519 22.004 35.6519 22.9136 38.5107C23.8232 41.3695 23.8232 41.3695 23.8233 41.3695C23.8234 41.3694 23.8235 41.3694 23.8236 41.3694C23.8239 41.3693 23.8243 41.3692 23.8248 41.369C23.8259 41.3686 23.8275 41.3681 23.8296 41.3675C23.8338 41.3661 23.84 41.3641 23.8483 41.3615C23.8649 41.3562 23.8894 41.3484 23.9217 41.3382C23.9861 41.3176 24.0812 41.2874 24.2036 41.2484C24.4485 41.1704 24.803 41.0574 25.2417 40.9175C26.119 40.6376 27.3332 40.2499 28.6811 39.8183C31.3736 38.956 34.6097 37.9152 36.7549 37.2103L34.8818 31.5102Z" fill="url(#paint0_linear_152_871)" mask="url(#path-1-inside-1_152_871)"/>
<defs>
<linearGradient id="paint0_linear_152_871" x1="30.5" y1="64" x2="80" y2="32" gradientUnits="userSpaceOnUse">
<stop stop-color="#0066FF"/>
<stop offset="1" stop-color="#173CFF"/>
</linearGradient>
</defs>
</svg>
