<svg width="80" height="77" viewBox="0 0 80 77" fill="none" xmlns="http://www.w3.org/2000/svg">
<mask id="path-1-inside-1_151_863" fill="white">
<path d="M47.8993 56.4263C40.8056 58.5241 32.4831 57.3813 27.5813 51.5038C36.8834 48.1722 46.4614 45.5329 55.8618 42.4825C61.6108 40.617 67.3874 38.8234 73.1597 37.0292C74.8559 36.5019 80 34.924 80 34.924C80 34.924 79.7471 32.584 79.573 31.743C79.1573 29.735 78.5635 27.7267 77.891 25.7883C74.7664 16.7825 68.8627 8.88795 60.2549 4.33312C42.1024 -5.27224 16.5952 1.77258 5.6798 18.7504C0.884372 26.2092 -0.449481 34.4477 0.124752 43.1124C0.693439 51.6936 4.401 60.6758 10.8435 66.5798C21.8592 76.6752 38.9509 79.2259 53.1161 75.1372C56.2965 74.2193 59.476 73.0358 62.4512 71.5987C63.3894 71.1456 65.7256 69.6623 65.7256 69.6623C65.7256 69.6623 63.7287 66.0025 63.0255 64.8464C60.6112 60.8772 56.5958 53.6449 56.5958 53.6449M22.9136 38.5107C22.9136 38.5107 19.4077 22.78 33.5948 18.7075C50.0333 13.9887 53.5736 26.9381 54.2165 28.2781C54.2165 28.2781 50.3133 29.5967 48.9976 30.0292L35.8183 34.3602C31.5521 35.7621 22.9136 38.5107 22.9136 38.5107Z"/>
</mask>
<path d="M27.5813 51.5038L22.8607 38.3237L3.99441 45.0808L16.8297 60.4707L27.5813 51.5038ZM55.8618 42.4825L60.183 55.799L60.1831 55.7989L55.8618 42.4825ZM73.1597 37.0292L77.315 50.3983L77.3155 50.3982L73.1597 37.0292ZM80 34.924L84.1057 48.3084L95.1613 44.9171L93.919 33.42L80 34.924ZM79.573 31.743L93.2824 28.9049L93.2824 28.9049L79.573 31.743ZM77.891 25.7883L91.1178 21.2001L91.1176 21.1993L77.891 25.7883ZM60.2549 4.33312L66.8029 -8.04122L66.8028 -8.04127L60.2549 4.33312ZM5.6798 18.7504L-6.09636 11.1793L-6.09637 11.1793L5.6798 18.7504ZM0.124752 43.1124L14.0941 42.1867L0.124752 43.1124ZM10.8435 66.5798L20.3024 56.2586L20.3022 56.2584L10.8435 66.5798ZM53.1161 75.1372L49.2339 61.6862L49.2336 61.6863L53.1161 75.1372ZM62.4512 71.5987L56.3623 58.9921L56.3621 58.9923L62.4512 71.5987ZM65.7256 69.6623L73.2296 81.4813L84.2907 74.4584L78.0153 62.9568L65.7256 69.6623ZM63.0255 64.8464L74.9868 57.5713L74.9866 57.5708L63.0255 64.8464ZM22.9136 38.5107L9.24883 41.5561L12.5773 56.4911L27.1584 51.8517L22.9136 38.5107ZM33.5948 18.7075L37.4576 32.1641L37.4576 32.164L33.5948 18.7075ZM54.2165 28.2781L58.6973 41.5417L73.6801 36.4802L66.8388 22.2218L54.2165 28.2781ZM48.9976 30.0292L53.3684 43.3295L53.37 43.3289L48.9976 30.0292ZM35.8183 34.3602L40.1888 47.6606L40.1891 47.6605L35.8183 34.3602ZM43.9291 43.0011C42.3813 43.4588 40.8953 43.4875 39.8189 43.2596C38.8308 43.0503 38.4774 42.7104 38.3328 42.5369L16.8297 60.4707C26.4505 72.0063 41.3639 72.9584 51.8696 69.8515L43.9291 43.0011ZM32.3018 64.6839C41.4701 61.4002 49.85 59.152 60.183 55.799L51.5407 29.1661C43.0728 31.9139 32.2966 34.9441 22.8607 38.3237L32.3018 64.6839ZM60.1831 55.7989C65.8341 53.9651 71.5248 52.198 77.315 50.3983L69.0043 23.6601C63.25 25.4487 57.3874 27.2688 51.5405 29.1662L60.1831 55.7989ZM77.3155 50.3982C78.1378 50.1426 79.8246 49.6234 81.3288 49.1611C82.0759 48.9315 82.7703 48.7183 83.2781 48.5624C83.5319 48.4845 83.739 48.4209 83.8825 48.3769C83.9543 48.3549 84.0102 48.3377 84.0481 48.3261C84.067 48.3203 84.0815 48.3159 84.0912 48.3129C84.096 48.3114 84.0997 48.3103 84.1021 48.3095C84.1033 48.3092 84.1042 48.3089 84.1048 48.3087C84.1051 48.3086 84.1054 48.3085 84.1055 48.3085C84.1056 48.3085 84.1056 48.3084 84.1057 48.3084C84.1057 48.3084 84.1057 48.3084 80 34.924C75.8943 21.5396 75.8942 21.5396 75.8942 21.5396C75.8942 21.5396 75.8941 21.5396 75.894 21.5396C75.8938 21.5397 75.8936 21.5398 75.8933 21.5399C75.8926 21.5401 75.8917 21.5404 75.8904 21.5407C75.8879 21.5415 75.8841 21.5427 75.8792 21.5442C75.8693 21.5472 75.8547 21.5517 75.8355 21.5576C75.7973 21.5693 75.741 21.5866 75.6688 21.6087C75.5244 21.653 75.3163 21.7169 75.0614 21.7951C74.5516 21.9516 73.8541 22.1658 73.1031 22.3966C71.6112 22.8551 69.8779 23.3886 69.0039 23.6603L77.3155 50.3982ZM80 34.924C93.919 33.42 93.9189 33.4197 93.9189 33.4194C93.9189 33.4193 93.9189 33.4191 93.9189 33.4189C93.9188 33.4185 93.9188 33.4181 93.9187 33.4176C93.9186 33.4167 93.9185 33.4156 93.9184 33.4144C93.9181 33.4119 93.9178 33.4089 93.9174 33.4054C93.9166 33.3982 93.9156 33.3889 93.9143 33.3773C93.9118 33.3544 93.9084 33.3228 93.904 33.2837C93.8954 33.2056 93.8832 33.0965 93.8682 32.9643C93.8384 32.7022 93.7962 32.3382 93.7469 31.9379C93.6776 31.375 93.5067 29.9887 93.2824 28.9049L65.8637 34.581C65.8135 34.3382 65.8561 34.5424 65.9567 35.3598C65.9924 35.6497 66.0243 35.9232 66.0473 36.1261C66.0587 36.2265 66.0677 36.3068 66.0735 36.3599C66.0765 36.3864 66.0786 36.406 66.0799 36.4177C66.0805 36.4235 66.0809 36.4274 66.0811 36.4291C66.0812 36.43 66.0813 36.4304 66.0813 36.4302C66.0812 36.4301 66.0812 36.4299 66.0812 36.4295C66.0812 36.4293 66.0811 36.4291 66.0811 36.4289C66.0811 36.4288 66.0811 36.4285 66.0811 36.4285C66.081 36.4283 66.081 36.428 80 34.924ZM93.2824 28.9049C92.7109 26.1444 91.9272 23.5332 91.1178 21.2001L64.6643 30.3766C65.1997 31.9202 65.6038 33.3256 65.8637 34.581L93.2824 28.9049ZM91.1176 21.1993C87.0582 9.4993 79.1027 -1.53269 66.8029 -8.04122L53.707 16.7075C58.6226 19.3086 62.4747 24.0657 64.6645 30.3773L91.1176 21.1993ZM66.8028 -8.04127C54.099 -14.7634 39.4606 -15.3885 26.6293 -11.9497C13.8122 -8.51472 1.53383 -0.688732 -6.09636 11.1793L17.456 26.3215C20.7412 21.2117 26.6741 17.0264 33.8775 15.0959C41.0669 13.1691 48.2583 13.8243 53.7071 16.7075L66.8028 -8.04127ZM-6.09637 11.1793C-12.9542 21.8461 -14.5558 33.3074 -13.8446 44.0382L14.0941 42.1867C13.6568 35.5879 14.723 30.5724 17.456 26.3215L-6.09637 11.1793ZM-13.8446 44.0382C-13.0779 55.6068 -8.13225 68.1797 1.38472 76.9013L20.3022 56.2584C16.9342 53.1719 14.4648 47.7804 14.0941 42.1867L-13.8446 44.0382ZM1.38457 76.9011C16.6858 90.9239 39.1166 93.7496 56.9987 88.588L49.2336 61.6863C38.7851 64.7022 27.0327 62.4265 20.3024 56.2586L1.38457 76.9011ZM56.9983 88.5881C60.8503 87.4764 64.7778 86.0225 68.5403 84.2052L56.3621 58.9923C54.1741 60.0491 51.7427 60.9621 49.2339 61.6862L56.9983 88.5881ZM68.5401 84.2053C69.7337 83.6287 71.1447 82.7697 71.7266 82.415C72.1354 82.1658 72.5043 81.9367 72.7691 81.7711C72.9028 81.6875 73.0128 81.6183 73.0916 81.5686C73.1311 81.5437 73.163 81.5235 73.1862 81.5088C73.1979 81.5014 73.2074 81.4954 73.2147 81.4908C73.2183 81.4885 73.2214 81.4865 73.2239 81.485C73.2251 81.4842 73.2262 81.4835 73.2272 81.4829C73.2277 81.4826 73.2281 81.4823 73.2285 81.482C73.2287 81.4819 73.229 81.4817 73.2291 81.4816C73.2294 81.4815 73.2296 81.4813 65.7256 69.6623C58.2215 57.8433 58.2217 57.8431 58.222 57.843C58.222 57.843 58.2222 57.8428 58.2224 57.8427C58.2226 57.8426 58.2229 57.8424 58.2231 57.8423C58.2235 57.842 58.2237 57.8419 58.2239 57.8418C58.2241 57.8416 58.2238 57.8418 58.223 57.8423C58.2214 57.8434 58.2176 57.8457 58.2119 57.8493C58.2005 57.8566 58.1813 57.8687 58.1551 57.8853C58.1025 57.9184 58.0227 57.9686 57.9226 58.0312C57.7201 58.1578 57.4463 58.3279 57.1538 58.5061C56.3331 59.0064 56.1069 59.1155 56.3623 58.9921L68.5401 84.2053ZM65.7256 69.6623C78.0153 62.9568 78.0152 62.9567 78.0151 62.9566C78.0151 62.9566 78.015 62.9564 78.015 62.9563C78.0148 62.9561 78.0147 62.9558 78.0145 62.9554C78.0141 62.9548 78.0136 62.9538 78.013 62.9527C78.0118 62.9504 78.0101 62.9473 78.0079 62.9433C78.0035 62.9353 77.9973 62.9239 77.9893 62.9093C77.9733 62.88 77.9503 62.8378 77.9209 62.7843C77.8623 62.6771 77.7786 62.5241 77.6761 62.3373C77.4716 61.9648 77.1903 61.4534 76.8847 60.902C76.3382 59.9158 75.5158 58.4409 74.9868 57.5713L51.0642 72.1214C51.2384 72.4079 51.766 73.341 52.3938 74.4738C52.6753 74.9818 52.9371 75.4576 53.129 75.8074C53.2248 75.9818 53.3025 76.1238 53.3558 76.2213C53.3825 76.2701 53.403 76.3076 53.4166 76.3325C53.4234 76.345 53.4285 76.3543 53.4317 76.3602C53.4334 76.3632 53.4345 76.3653 53.4352 76.3666C53.4356 76.3672 53.4358 76.3676 53.4359 76.3678C53.4359 76.3679 53.436 76.368 53.436 76.368C53.436 76.368 53.4359 76.3679 53.4359 76.3679C53.4359 76.3678 53.4359 76.3678 65.7256 69.6623ZM74.9866 57.5708C73.9017 55.7872 72.3867 53.1511 71.0858 50.8553C70.448 49.7297 69.883 48.7238 69.4778 47.9997C69.2754 47.638 69.1133 47.3476 69.0026 47.1489C68.9473 47.0496 68.9048 46.9732 68.8765 46.9224C68.8624 46.897 68.8518 46.8779 68.8449 46.8656C68.8415 46.8595 68.839 46.855 68.8375 46.8522C68.8367 46.8508 68.8362 46.8499 68.8359 46.8493C68.8358 46.8491 68.8357 46.8489 68.8357 46.8489C68.8356 46.8489 68.8357 46.8489 68.8357 46.8489C68.8357 46.849 68.8358 46.8491 56.5958 53.6449C44.3558 60.4406 44.3559 60.4408 44.356 60.441C44.356 60.4411 44.3561 60.4413 44.3562 60.4415C44.3565 60.4419 44.3567 60.4424 44.3571 60.443C44.3578 60.4442 44.3587 60.4459 44.3599 60.448C44.3622 60.4522 44.3655 60.4582 44.3698 60.4658C44.3783 60.4811 44.3905 60.5032 44.4064 60.5317C44.4381 60.5888 44.4843 60.6717 44.5434 60.7778C44.6617 60.9901 44.8323 61.2958 45.044 61.6742C45.4671 62.4302 46.057 63.4805 46.7248 64.659C48.0352 66.9717 49.7351 69.9363 51.0645 72.1219L74.9866 57.5708ZM22.9136 38.5107C36.5783 35.4653 36.5797 35.4714 36.581 35.4773C36.5814 35.4793 36.5828 35.4852 36.5836 35.4891C36.5853 35.4968 36.587 35.5043 36.5886 35.5116C36.5918 35.5262 36.5948 35.5401 36.5976 35.5531C36.6032 35.5791 36.608 35.6019 36.6121 35.6217C36.6203 35.6611 36.6256 35.6885 36.6287 35.7045C36.6347 35.7361 36.632 35.7243 36.6242 35.6747C36.6082 35.5715 36.576 35.3384 36.5537 35.0177C36.5048 34.3139 36.5283 33.5448 36.657 32.9074C36.7817 32.2901 36.9175 32.2114 36.7989 32.3571C36.5696 32.6389 36.5188 32.4335 37.4576 32.1641L29.732 5.25093C16.3784 9.08416 10.8604 19.1971 9.21101 27.3652C8.44281 31.1696 8.45615 34.5876 8.6212 36.9606C8.7059 38.1783 8.83679 39.206 8.95705 39.9789C9.01749 40.3675 9.07617 40.6976 9.12665 40.9616C9.15192 41.0938 9.17524 41.21 9.19583 41.3093C9.20613 41.3589 9.21575 41.4044 9.22461 41.4455C9.22905 41.4661 9.23329 41.4857 9.23733 41.5041C9.23934 41.5133 9.24131 41.5223 9.24323 41.5309C9.24419 41.5353 9.24559 41.5416 9.24607 41.5437C9.24745 41.55 9.24883 41.5561 22.9136 38.5107ZM37.4576 32.164C38.6351 31.826 39.4564 31.7155 39.9678 31.6864C40.4689 31.658 40.6957 31.706 40.7147 31.7101C40.7284 31.713 40.6459 31.6943 40.5188 31.6256C40.3995 31.5612 40.3189 31.4949 40.2836 31.4621C40.248 31.4289 40.3723 31.541 40.5689 31.9257C40.6561 32.0962 40.7386 32.2824 40.8328 32.5164C40.8908 32.6606 40.9243 32.7485 41.0168 32.9857C41.0533 33.0792 41.118 33.2447 41.1909 33.4228C41.2525 33.5733 41.3969 33.9229 41.5943 34.3344L66.8388 22.2218C67.6486 23.9095 64.9489 16.175 59.3744 10.9794C52.4013 4.48019 42.1856 1.67605 29.732 5.25094L37.4576 32.164ZM54.2165 28.2781C49.7358 15.0145 49.7358 15.0145 49.7358 15.0145C49.7358 15.0145 49.7358 15.0145 49.7357 15.0145C49.7356 15.0145 49.7355 15.0146 49.7353 15.0147C49.7348 15.0148 49.7342 15.015 49.7333 15.0153C49.7315 15.0159 49.7288 15.0169 49.7252 15.0181C49.718 15.0205 49.7071 15.0242 49.6929 15.029C49.6644 15.0386 49.6223 15.0528 49.5681 15.0711C49.4597 15.1077 49.3032 15.1605 49.1111 15.2253C48.7269 15.355 48.2013 15.5321 47.6353 15.7226C46.4824 16.1106 45.2274 16.5315 44.6253 16.7295L53.37 43.3289C54.0836 43.0943 55.4381 42.6397 56.5656 42.2603C57.1399 42.067 57.6724 41.8875 58.0611 41.7564C58.2555 41.6908 58.4142 41.6373 58.5244 41.6C58.5796 41.5814 58.6226 41.5669 58.6519 41.557C58.6666 41.5521 58.6778 41.5483 58.6854 41.5457C58.6892 41.5444 58.6922 41.5434 58.6941 41.5427C58.6951 41.5424 58.6959 41.5422 58.6964 41.542C58.6967 41.5419 58.6969 41.5418 58.697 41.5418C58.6971 41.5417 58.6971 41.5417 58.6972 41.5417C58.6972 41.5417 58.6973 41.5417 54.2165 28.2781ZM44.6268 16.729L31.4475 21.06L40.1891 47.6605L53.3684 43.3295L44.6268 16.729ZM31.4478 21.0599C29.3709 21.7424 26.1909 22.7653 23.4963 23.6282C22.1562 24.0573 20.9484 24.443 20.0756 24.7214C19.6393 24.8606 19.287 24.9729 19.044 25.0503C18.9225 25.089 18.8284 25.1189 18.7648 25.1392C18.733 25.1493 18.7088 25.157 18.6927 25.1621C18.6846 25.1647 18.6786 25.1666 18.6746 25.1679C18.6726 25.1685 18.6711 25.169 18.6701 25.1693C18.6696 25.1695 18.6693 25.1696 18.669 25.1697C18.6689 25.1697 18.6689 25.1697 18.6688 25.1697C18.6688 25.1697 18.6688 25.1697 22.9136 38.5107C27.1584 51.8517 27.1584 51.8517 27.1585 51.8516C27.1586 51.8516 27.1587 51.8516 27.1589 51.8515C27.1592 51.8514 27.1596 51.8513 27.1602 51.8511C27.1613 51.8508 27.163 51.8502 27.1652 51.8495C27.1695 51.8482 27.1759 51.8461 27.1843 51.8435C27.2011 51.8381 27.226 51.8302 27.2585 51.8198C27.3235 51.7991 27.4191 51.7687 27.5422 51.7295C27.7883 51.6511 28.1442 51.5377 28.5844 51.3973C29.4646 51.1165 30.6831 50.7274 32.0359 50.2942C34.7271 49.4323 37.9995 48.38 40.1888 47.6606L31.4478 21.0599Z" fill="url(#paint0_linear_151_863)" mask="url(#path-1-inside-1_151_863)"/>
<defs>
<linearGradient id="paint0_linear_151_863" x1="30.5" y1="64" x2="80" y2="32" gradientUnits="userSpaceOnUse">
<stop stop-color="#0066FF"/>
<stop offset="1" stop-color="#173CFF"/>
</linearGradient>
</defs>
</svg>
